<svg height="70" viewBox="0 0 290 70" width="290" xmlns="http://www.w3.org/2000/svg" xmlns:xlink="http://www.w3.org/1999/xlink"><clipPath id="a"><path d="m0 0h290v70h-290z"/></clipPath><g clip-path="url(#a)"><path d="m70.2 69.9-41.036-69.811-8.494 14.458a9.6 9.6 0 0 0 0 9.751l23.93 40.709a10.017 10.017 0 0 0 8.648 4.9z" fill="#f82100" transform="translate(12.234 -.075)"/><path d="m39.528 29.385c0-.016 0 0 0-.014a43.01 43.01 0 0 0 -39.528 23.574h18.166a10 10 0 0 0 10.092-8.521 19.742 19.742 0 0 1 11.27-15.039" fill="#f82100" transform="translate(.389 16.884)"/><g fill="#191b77"><path d="m77.943 14.229a1.588 1.588 0 0 1 -.6 1.251 2.068 2.068 0 0 1 -1.379.513 1.79 1.79 0 0 1 -.964-.267 1.831 1.831 0 0 1 -.685-.805l-1.026-2.255h-7.389l-1.05 2.255a1.789 1.789 0 0 1 -.695.805 1.844 1.844 0 0 1 -.969.267 2.15 2.15 0 0 1 -1.4-.513 1.561 1.561 0 0 1 -.627-1.251 1.9 1.9 0 0 1 .2-.826l6.026-12.109a2.088 2.088 0 0 1 .877-.927 2.7 2.7 0 0 1 2.565 0 2.091 2.091 0 0 1 .89.927l6.021 12.106a1.884 1.884 0 0 1 .2.826m-10.621-4.643h4.56l-2.277-4.983z" transform="translate(37.846 -.102)"/><path d="m75.4 15.761a7.863 7.863 0 0 1 -2.565-1.083 1.974 1.974 0 0 1 -.56-.6 1.681 1.681 0 0 1 -.171-.8 1.757 1.757 0 0 1 .411-1.162 1.22 1.22 0 0 1 .958-.491 1.81 1.81 0 0 1 .569.09 3.544 3.544 0 0 1 .685.335 7.51 7.51 0 0 0 1.859.738 8.917 8.917 0 0 0 2.089.212 4.256 4.256 0 0 0 2.041-.392 1.246 1.246 0 0 0 .695-1.15 1.047 1.047 0 0 0 -.65-.881 9.3 9.3 0 0 0 -2.475-.727 14.64 14.64 0 0 1 -3.534-1.117 4.17 4.17 0 0 1 -1.79-1.53 4.166 4.166 0 0 1 -.514-2.134 4.228 4.228 0 0 1 .868-2.592 5.757 5.757 0 0 1 2.384-1.818 8.476 8.476 0 0 1 3.407-.659 11.259 11.259 0 0 1 2.965.357 7.529 7.529 0 0 1 2.372 1.118 1.831 1.831 0 0 1 .582.613 1.676 1.676 0 0 1 .171.793 1.792 1.792 0 0 1 -.4 1.162 1.188 1.188 0 0 1 -.946.493 1.836 1.836 0 0 1 -.548-.079 3.827 3.827 0 0 1 -.706-.346c-.077-.044-.293-.161-.65-.347a5.358 5.358 0 0 0 -1.254-.445 6.857 6.857 0 0 0 -1.562-.169 3.53 3.53 0 0 0 -1.87.436 1.312 1.312 0 0 0 -.708 1.151.97.97 0 0 0 .252.692 2.526 2.526 0 0 0 .935.524 13.694 13.694 0 0 0 2.03.526 13.832 13.832 0 0 1 3.444 1.128 4.384 4.384 0 0 1 1.779 1.53 3.911 3.911 0 0 1 .524 2.056 4.234 4.234 0 0 1 -.843 2.6 5.388 5.388 0 0 1 -2.361 1.742 9.32 9.32 0 0 1 -3.523.614 13.932 13.932 0 0 1 -3.388-.39" transform="translate(44.551 -.127)"/><path d="m82.454 15.505a1.984 1.984 0 0 1 -.56-1.486v-11.951a1.955 1.955 0 0 1 .56-1.463 2.076 2.076 0 0 1 1.517-.548 2.143 2.143 0 0 1 1.55.548 1.933 1.933 0 0 1 .571 1.463v11.951a1.96 1.96 0 0 1 -.571 1.486 2.143 2.143 0 0 1 -1.55.548 2.076 2.076 0 0 1 -1.517-.548" transform="translate(50.545 -.094)"/><path d="m102.359 14.229a1.586 1.586 0 0 1 -.606 1.251 2.068 2.068 0 0 1 -1.379.513 1.781 1.781 0 0 1 -.958-.267 1.807 1.807 0 0 1 -.684-.805l-1.027-2.255h-7.39l-1.05 2.255a1.8 1.8 0 0 1 -.695.805 1.844 1.844 0 0 1 -.969.267 2.155 2.155 0 0 1 -1.4-.513 1.565 1.565 0 0 1 -.627-1.251 1.884 1.884 0 0 1 .2-.826l6.026-12.109a2.1 2.1 0 0 1 .879-.927 2.7 2.7 0 0 1 2.565 0 2.079 2.079 0 0 1 .888.927l6.021 12.106a1.887 1.887 0 0 1 .206.826m-10.629-4.643h4.562l-2.282-4.983z" transform="translate(52.798 -.102)"/><path d="m110.858.615a1.964 1.964 0 0 1 .56 1.451v11.953a2.016 2.016 0 0 1 -.548 1.474 1.9 1.9 0 0 1 -1.414.559 1.847 1.847 0 0 1 -1.551-.671l-6.935-8.466v7.1a2.063 2.063 0 0 1 -.524 1.474 1.848 1.848 0 0 1 -1.414.559 1.892 1.892 0 0 1 -1.414-.559 2.015 2.015 0 0 1 -.547-1.474v-11.948a1.987 1.987 0 0 1 .547-1.452 1.892 1.892 0 0 1 1.414-.559 1.867 1.867 0 0 1 1.529.671l6.934 8.443v-7.1a2 2 0 0 1 .534-1.47 1.876 1.876 0 0 1 1.4-.548 1.931 1.931 0 0 1 1.425.559" transform="translate(59.841 -.094)"/><path d="m77.943 31.2a1.588 1.588 0 0 1 -.6 1.251 2.068 2.068 0 0 1 -1.379.513 1.79 1.79 0 0 1 -.964-.264 1.831 1.831 0 0 1 -.685-.805l-1.026-2.255h-7.389l-1.05 2.255a1.789 1.789 0 0 1 -.695.805 1.844 1.844 0 0 1 -.969.267 2.15 2.15 0 0 1 -1.4-.513 1.561 1.561 0 0 1 -.627-1.251 1.9 1.9 0 0 1 .2-.826l6.023-12.109a2.088 2.088 0 0 1 .877-.927 2.7 2.7 0 0 1 2.565 0 2.091 2.091 0 0 1 .89.927l6.021 12.109a1.884 1.884 0 0 1 .2.826m-10.618-4.647h4.56l-2.277-4.982z" transform="translate(37.846 9.732)"/><path d="m73.159 32.4a1.907 1.907 0 0 1 -.5-1.429v-11.93a1.96 1.96 0 0 1 .558-1.464 2.082 2.082 0 0 1 1.517-.546 2.155 2.155 0 0 1 1.551.546 1.944 1.944 0 0 1 .569 1.464v10.521h5.246q1.983 0 1.983 1.674a1.523 1.523 0 0 1 -.49 1.252 2.323 2.323 0 0 1 -1.493.4h-7.5a1.962 1.962 0 0 1 -1.437-.491" transform="translate(44.889 9.74)"/><path d="m81.25 32.4a1.907 1.907 0 0 1 -.5-1.429v-11.93a1.96 1.96 0 0 1 .558-1.464 2.082 2.082 0 0 1 1.517-.546 2.155 2.155 0 0 1 1.551.546 1.943 1.943 0 0 1 .569 1.464v10.521h5.247q1.983 0 1.983 1.674a1.523 1.523 0 0 1 -.49 1.252 2.323 2.323 0 0 1 -1.493.4h-7.5a1.962 1.962 0 0 1 -1.442-.488" transform="translate(49.844 9.74)"/><path d="m89.4 32.478a1.978 1.978 0 0 1 -.56-1.486v-11.951a1.949 1.949 0 0 1 .56-1.463 2.07 2.07 0 0 1 1.516-.548 2.153 2.153 0 0 1 1.553.548 1.942 1.942 0 0 1 .568 1.463v11.951a1.97 1.97 0 0 1 -.568 1.486 2.153 2.153 0 0 1 -1.553.548 2.07 2.07 0 0 1 -1.516-.548" transform="translate(54.799 9.74)"/><path d="m109.3 31.2a1.584 1.584 0 0 1 -.6 1.251 2.072 2.072 0 0 1 -1.38.513 1.785 1.785 0 0 1 -.958-.267 1.817 1.817 0 0 1 -.684-.805l-1.027-2.255h-7.39l-1.05 2.255a1.8 1.8 0 0 1 -.7.805 1.84 1.84 0 0 1 -.969.267 2.155 2.155 0 0 1 -1.4-.513 1.565 1.565 0 0 1 -.627-1.251 1.906 1.906 0 0 1 .2-.826l6.023-12.109a2.1 2.1 0 0 1 .877-.927 2.7 2.7 0 0 1 2.565 0 2.091 2.091 0 0 1 .89.927l6.03 12.111a1.887 1.887 0 0 1 .206.826m-10.632-4.646h4.562l-2.282-4.981z" transform="translate(57.051 9.732)"/><path d="m117.8 17.589a1.964 1.964 0 0 1 .56 1.451v11.953a2.016 2.016 0 0 1 -.548 1.474 1.9 1.9 0 0 1 -1.414.559 1.847 1.847 0 0 1 -1.551-.671l-6.934-8.466v7.1a2.063 2.063 0 0 1 -.524 1.474 1.848 1.848 0 0 1 -1.414.559 1.892 1.892 0 0 1 -1.414-.559 2.015 2.015 0 0 1 -.547-1.474v-11.948a1.987 1.987 0 0 1 .547-1.451 1.892 1.892 0 0 1 1.414-.559 1.867 1.867 0 0 1 1.529.671l6.934 8.443v-7.1a2 2 0 0 1 .535-1.463 1.876 1.876 0 0 1 1.4-.548 1.931 1.931 0 0 1 1.425.559" transform="translate(64.094 9.74)"/><path d="m118.265 32.142a6.842 6.842 0 0 1 -2.806-2.814 8.872 8.872 0 0 1 -.992-4.29 8.825 8.825 0 0 1 .992-4.266 6.856 6.856 0 0 1 2.806-2.816 9.486 9.486 0 0 1 9.317.513 1.78 1.78 0 0 1 .56.583 1.673 1.673 0 0 1 .169.8 1.77 1.77 0 0 1 -.4 1.172 1.217 1.217 0 0 1 -.969.482 1.8 1.8 0 0 1 -.616-.1 3.783 3.783 0 0 1 -.639-.324 6.558 6.558 0 0 0 -1.5-.671 5.319 5.319 0 0 0 -1.461-.2 3.7 3.7 0 0 0 -3.022 1.2 5.6 5.6 0 0 0 -.992 3.629 5.637 5.637 0 0 0 .992 3.653 3.7 3.7 0 0 0 3.022 1.2 4.162 4.162 0 0 0 1.324-.213c.426-.141.972-.362 1.641-.659.319-.164.555-.275.706-.335a1.494 1.494 0 0 1 .548-.09 1.22 1.22 0 0 1 .969.48 1.775 1.775 0 0 1 .4 1.173 1.692 1.692 0 0 1 -.169.793 1.729 1.729 0 0 1 -.56.592 9.486 9.486 0 0 1 -9.317.513" transform="translate(70.496 9.708)"/><path d="m124.813 32.358a1.882 1.882 0 0 1 -.5-1.407v-11.951a1.887 1.887 0 0 1 .5-1.407 1.966 1.966 0 0 1 1.438-.491h7.891a2.334 2.334 0 0 1 1.482.4 1.4 1.4 0 0 1 .5 1.162q0 1.606-1.983 1.608h-5.748v2.993h5.291q1.986 0 1.985 1.587a1.4 1.4 0 0 1 -.5 1.161 2.333 2.333 0 0 1 -1.483.4h-5.291v3.261h5.748q1.981 0 1.983 1.608a1.4 1.4 0 0 1 -.5 1.162 2.334 2.334 0 0 1 -1.482.4h-7.891a1.966 1.966 0 0 1 -1.438-.491" transform="translate(76.525 9.781)"/><path d="m62.453 49.451a1.984 1.984 0 0 1 -.56-1.486v-11.951a1.955 1.955 0 0 1 .56-1.463 2.076 2.076 0 0 1 1.517-.551 2.143 2.143 0 0 1 1.55.548 1.933 1.933 0 0 1 .571 1.463v11.954a1.96 1.96 0 0 1 -.571 1.486 2.143 2.143 0 0 1 -1.55.549 2.076 2.076 0 0 1 -1.517-.548" transform="translate(38.296 19.574)"/><path d="m80.094 34.562a1.963 1.963 0 0 1 .558 1.451v11.953a2.015 2.015 0 0 1 -.547 1.474 1.892 1.892 0 0 1 -1.414.56 1.847 1.847 0 0 1 -1.551-.671l-6.934-8.466v7.1a2.063 2.063 0 0 1 -.524 1.474 1.846 1.846 0 0 1 -1.414.563 1.892 1.892 0 0 1 -1.414-.559 2.016 2.016 0 0 1 -.548-1.474v-11.953a1.988 1.988 0 0 1 .548-1.451 1.892 1.892 0 0 1 1.414-.563 1.867 1.867 0 0 1 1.529.671l6.934 8.443v-7.1a2 2 0 0 1 .535-1.463 1.876 1.876 0 0 1 1.4-.548 1.931 1.931 0 0 1 1.425.559" transform="translate(40.998 19.574)"/><path d="m81.82 49.389a1.912 1.912 0 0 1 -.582-1.464v-10.525h-3.215a2.277 2.277 0 0 1 -1.495-.414 1.554 1.554 0 0 1 -.49-1.262 1.524 1.524 0 0 1 .49-1.251 2.325 2.325 0 0 1 1.495-.4h10.677a2.325 2.325 0 0 1 1.495.4 1.524 1.524 0 0 1 .49 1.251 1.554 1.554 0 0 1 -.49 1.262 2.277 2.277 0 0 1 -1.495.414h-3.219v10.525a1.912 1.912 0 0 1 -.582 1.464 2.441 2.441 0 0 1 -3.078 0" transform="translate(46.959 19.616)"/><path d="m86.454 49.332a1.876 1.876 0 0 1 -.5-1.407v-11.952a1.88 1.88 0 0 1 .5-1.407 1.962 1.962 0 0 1 1.437-.491h7.891a2.328 2.328 0 0 1 1.482.4 1.4 1.4 0 0 1 .5 1.162q0 1.606-1.983 1.608h-5.747v2.993h5.292q1.986 0 1.985 1.587a1.4 1.4 0 0 1 -.5 1.161 2.328 2.328 0 0 1 -1.482.4h-5.295v3.261h5.748q1.983 0 1.983 1.608a1.4 1.4 0 0 1 -.5 1.162 2.328 2.328 0 0 1 -1.482.4h-7.892a1.962 1.962 0 0 1 -1.437-.491" transform="translate(53.031 19.616)"/><path d="m108.332 48.349a1.468 1.468 0 0 1 -.6 1.2 2.276 2.276 0 0 1 -2.428.234 2.251 2.251 0 0 1 -.821-.736l-2.97-4.247a2.348 2.348 0 0 0 -.672-.659 1.583 1.583 0 0 0 -.832-.213h-1.484v4a2.008 2.008 0 0 1 -.547 1.486 2.039 2.039 0 0 1 -1.506.548 2.079 2.079 0 0 1 -1.517-.548 1.989 1.989 0 0 1 -.558-1.486v-11.956a1.887 1.887 0 0 1 .5-1.407 1.973 1.973 0 0 1 1.438-.491h5.724a6.663 6.663 0 0 1 4.389 1.24 4.421 4.421 0 0 1 1.471 3.585 4.648 4.648 0 0 1 -1 3.026 4.925 4.925 0 0 1 -2.827 1.665 3.144 3.144 0 0 1 1.311.493 4.6 4.6 0 0 1 1.106 1.139l1.413 1.988a2.044 2.044 0 0 1 .411 1.139m-4.937-7.93a1.574 1.574 0 0 0 .6-1.385 1.628 1.628 0 0 0 -.6-1.418 3.5 3.5 0 0 0 -2-.436h-2.916v3.664h2.92a3.573 3.573 0 0 0 2-.425" transform="translate(58.203 19.615)"/><path d="m118.184 34.562a1.964 1.964 0 0 1 .56 1.451v11.953a2.016 2.016 0 0 1 -.548 1.474 1.9 1.9 0 0 1 -1.414.559 1.847 1.847 0 0 1 -1.551-.671l-6.931-8.466v7.1a2.063 2.063 0 0 1 -.524 1.474 1.848 1.848 0 0 1 -1.414.559 1.892 1.892 0 0 1 -1.414-.559 2.015 2.015 0 0 1 -.547-1.474v-11.948a1.987 1.987 0 0 1 .547-1.451 1.892 1.892 0 0 1 1.41-.563 1.867 1.867 0 0 1 1.529.671l6.934 8.443v-7.1a2 2 0 0 1 .535-1.463 1.876 1.876 0 0 1 1.4-.548 1.931 1.931 0 0 1 1.425.559" transform="translate(64.328 19.574)"/><path d="m131.155 48.175a1.584 1.584 0 0 1 -.6 1.251 2.072 2.072 0 0 1 -1.38.513 1.785 1.785 0 0 1 -.958-.267 1.818 1.818 0 0 1 -.684-.805l-1.033-2.256h-7.388l-1.05 2.255a1.8 1.8 0 0 1 -.7.805 1.84 1.84 0 0 1 -.969.267 2.155 2.155 0 0 1 -1.4-.513 1.565 1.565 0 0 1 -.627-1.251 1.906 1.906 0 0 1 .2-.826l6.034-12.108a2.1 2.1 0 0 1 .877-.927 2.7 2.7 0 0 1 2.565 0 2.091 2.091 0 0 1 .89.927l6.021 12.109a1.886 1.886 0 0 1 .206.826m-10.629-4.647h4.562l-2.282-4.981z" transform="translate(70.434 19.566)"/><path d="m129.372 49.389a1.918 1.918 0 0 1 -.582-1.464v-10.525h-3.215a2.269 2.269 0 0 1 -1.493-.414 1.554 1.554 0 0 1 -.49-1.262 1.524 1.524 0 0 1 .49-1.251 2.317 2.317 0 0 1 1.493-.4h10.674a2.318 2.318 0 0 1 1.493.4 1.524 1.524 0 0 1 .49 1.251 1.554 1.554 0 0 1 -.49 1.262 2.269 2.269 0 0 1 -1.493.414h-3.217v10.525a1.917 1.917 0 0 1 -.58 1.464 2.443 2.443 0 0 1 -3.08 0" transform="translate(76.083 19.616)"/><path d="m134.064 49.451a1.983 1.983 0 0 1 -.558-1.486v-11.951a1.954 1.954 0 0 1 .558-1.463 2.076 2.076 0 0 1 1.517-.551 2.149 2.149 0 0 1 1.551.548 1.938 1.938 0 0 1 .569 1.463v11.954a1.965 1.965 0 0 1 -.569 1.486 2.149 2.149 0 0 1 -1.551.548 2.076 2.076 0 0 1 -1.517-.548" transform="translate(82.155 19.574)"/><path d="m141.44 49.1a6.837 6.837 0 0 1 -2.794-2.816 8.889 8.889 0 0 1 -.98-4.277 8.9 8.9 0 0 1 .98-4.279 6.779 6.779 0 0 1 2.794-2.8 9.8 9.8 0 0 1 8.552 0 6.711 6.711 0 0 1 2.781 2.8 8.976 8.976 0 0 1 .969 4.279 8.87 8.87 0 0 1 -.98 4.277 6.842 6.842 0 0 1 -2.792 2.816 9.652 9.652 0 0 1 -8.53 0m7.127-3.418a5.713 5.713 0 0 0 1.025-3.675 5.618 5.618 0 0 0 -1.038-3.664 3.871 3.871 0 0 0 -5.689-.011 5.648 5.648 0 0 0 -1.027 3.675 5.693 5.693 0 0 0 1.027 3.686 3.862 3.862 0 0 0 5.7-.011" transform="translate(84.703 19.542)"/><path d="m162.966 34.562a1.964 1.964 0 0 1 .559 1.451v11.953a2.016 2.016 0 0 1 -.548 1.474 1.9 1.9 0 0 1 -1.414.559 1.847 1.847 0 0 1 -1.551-.671l-6.934-8.466v7.1a2.063 2.063 0 0 1 -.524 1.474 1.848 1.848 0 0 1 -1.414.564 1.89 1.89 0 0 1 -1.414-.559 2.016 2.016 0 0 1 -.548-1.474v-11.953a1.988 1.988 0 0 1 .548-1.451 1.89 1.89 0 0 1 1.414-.563 1.862 1.862 0 0 1 1.527.671l6.935 8.443v-7.1a2 2 0 0 1 .535-1.463 1.876 1.876 0 0 1 1.4-.548 1.931 1.931 0 0 1 1.425.559" transform="translate(91.754 19.574)"/><path d="m175.937 48.175a1.584 1.584 0 0 1 -.6 1.251 2.072 2.072 0 0 1 -1.38.513 1.785 1.785 0 0 1 -.958-.267 1.817 1.817 0 0 1 -.684-.805l-1.027-2.255h-7.388l-1.05 2.255a1.8 1.8 0 0 1 -.7.805 1.84 1.84 0 0 1 -.969.267 2.155 2.155 0 0 1 -1.4-.513 1.565 1.565 0 0 1 -.627-1.251 1.906 1.906 0 0 1 .2-.826l6.023-12.109a2.1 2.1 0 0 1 .877-.927 2.7 2.7 0 0 1 2.565 0 2.091 2.091 0 0 1 .89.927l6.021 12.109a1.887 1.887 0 0 1 .206.826m-10.629-4.647h4.562l-2.282-4.981z" transform="translate(97.861 19.566)"/><path d="m171.151 49.373a1.914 1.914 0 0 1 -.5-1.429v-11.929a1.967 1.967 0 0 1 .558-1.464 2.084 2.084 0 0 1 1.515-.551 2.155 2.155 0 0 1 1.551.546 1.945 1.945 0 0 1 .571 1.464v10.526h5.245q1.983 0 1.983 1.674a1.523 1.523 0 0 1 -.49 1.252 2.321 2.321 0 0 1 -1.493.4h-7.5a1.966 1.966 0 0 1 -1.438-.491" transform="translate(104.904 19.575)"/></g></g></svg>